<?xml version="1.0" encoding="UTF-8"?>
<svg xmlns="http://www.w3.org/2000/svg" viewBox="0 0 319.16 319.17">
  <g fill="#FFFFFF">
    <path d="M172.9,211.49h-31.95l-23.41-65.23-23.41,65.23h-31.36l41.82-103.81h26.51l41.82,103.81Z"/>
    <path d="M217.62,132.42h-47.71l-8.93-24h88.3v21.5l-45.5,81.58h-31.51l45.35-79.07Z"/>
    <path d="M159.58,319.17C71.59,319.17,0,247.58,0,159.59S71.59,0,159.58,0s159.58,71.59,159.58,159.59-71.59,159.58-159.58,159.58ZM159.58,31.35c-70.71,0-128.23,57.52-128.23,128.23s57.52,128.23,128.23,128.23,128.23-57.52,128.23-128.23S230.29,31.35,159.58,31.35Z"/>
  </g>
</svg>
